<svg width="30" height="30" viewBox="0 0 47 47" fill="none" xmlns="http://www.w3.org/2000/svg">
<path d="M46.59 23.2952C46.59 36.1607 36.1605 46.5902 23.295 46.5902C10.4295 46.5902 0 36.1607 0 23.2952C0 10.4298 10.4295 0.000244141 23.295 0.000244141C36.1605 0.000244141 46.59 10.4298 46.59 23.2952Z" fill="none"/>
<path d="M46.59 23.2952C46.59 36.1607 36.1605 46.5902 23.295 46.5902C10.4295 46.5902 0 36.1607 0 23.2952C0 10.4298 10.4295 0.000244141 23.295 0.000244141C36.1605 0.000244141 46.59 10.4298 46.59 23.2952Z" fill='none'/>
<g filter="url(#filter0_ii_2_169)">
<path d="M39.6731 23.5681C39.6731 32.518 32.4177 39.7733 23.4679 39.7733C14.518 39.7733 7.26263 32.518 7.26263 23.5681C7.26263 14.6182 14.518 7.36292 23.4679 7.36292C32.4177 7.36292 39.6731 14.6182 39.6731 23.5681Z" fill="none" fill-opacity="0.3"/>
</g>
<g filter="url(#filter1_ii_2_169)">
<path fill-rule="evenodd" clip-rule="evenodd" d="M23.2955 39.1365C32.0441 39.1365 39.1361 32.0444 39.1361 23.2959C39.1361 14.5474 32.0441 7.45532 23.2955 7.45532C14.547 7.45532 7.45496 14.5474 7.45496 23.2959C7.45496 32.0444 14.547 39.1365 23.2955 39.1365ZM23.2955 40.514C32.8048 40.514 40.5136 32.8052 40.5136 23.2959C40.5136 13.7867 32.8048 6.07788 23.2955 6.07788C13.7863 6.07788 6.07751 13.7867 6.07751 23.2959C6.07751 32.8052 13.7863 40.514 23.2955 40.514Z" fill="none" fill-opacity="0.9"/>
</g>
<path fill-rule="evenodd" clip-rule="evenodd" d="M23.295 45.2591C35.4253 45.2591 45.2589 35.4255 45.2589 23.2952C45.2589 11.1649 35.4253 1.33139 23.295 1.33139C11.1647 1.33139 1.33114 11.1649 1.33114 23.2952C1.33114 35.4255 11.1647 45.2591 23.295 45.2591ZM23.295 46.5902C36.1605 46.5902 46.59 36.1607 46.59 23.2952C46.59 10.4298 36.1605 0.000244141 23.295 0.000244141C10.4295 0.000244141 0 10.4298 0 23.2952C0 36.1607 10.4295 46.5902 23.295 46.5902Z" fill="none"/>
<g filter="url(#filter2_dd_2_169)">
<path d="M34.6915 23.0427C34.6915 29.1958 29.7034 34.1838 23.5504 34.1838C17.3973 34.1838 12.4093 29.1958 12.4093 23.0427C12.4093 16.8897 17.3973 11.9016 23.5504 11.9016C29.7034 11.9016 34.6915 16.8897 34.6915 23.0427Z" fill="#FF7A2F"/>
<path d="M34.6915 23.0427C34.6915 29.1958 29.7034 34.1838 23.5504 34.1838C17.3973 34.1838 12.4093 29.1958 12.4093 23.0427C12.4093 16.8897 17.3973 11.9016 23.5504 11.9016C29.7034 11.9016 34.6915 16.8897 34.6915 23.0427Z" fill="none"/>
<path d="M34.6915 23.0427C34.6915 29.1958 29.7034 34.1838 23.5504 34.1838C17.3973 34.1838 12.4093 29.1958 12.4093 23.0427C12.4093 16.8897 17.3973 11.9016 23.5504 11.9016C29.7034 11.9016 34.6915 16.8897 34.6915 23.0427Z" fill="none" fill-opacity="0.2" style="mix-blend-mode:multiply"/>
<path d="M34.6915 23.0427C34.6915 29.1958 29.7034 34.1838 23.5504 34.1838C17.3973 34.1838 12.4093 29.1958 12.4093 23.0427C12.4093 16.8897 17.3973 11.9016 23.5504 11.9016C29.7034 11.9016 34.6915 16.8897 34.6915 23.0427Z" fill="none"/>
</g>
<g filter="url(#filter3_d_2_169)">
<path fill-rule="evenodd" clip-rule="evenodd" d="M23.5504 32.4698C29.0558 32.4698 32.9775 28.5481 32.9775 23.0427C32.9775 17.5374 29.0558 13.6157 23.5504 13.6157C18.045 13.6157 14.1233 17.5374 14.1233 23.0427C14.1233 28.5481 18.045 32.4698 23.5504 32.4698ZM23.5504 34.1838C29.7034 34.1838 34.6915 29.1958 34.6915 23.0427C34.6915 16.8897 29.7034 11.9016 23.5504 11.9016C17.3973 11.9016 12.4093 16.8897 12.4093 23.0427C12.4093 29.1958 17.3973 34.1838 23.5504 34.1838Z" fill="none" fill-opacity="0.4"/>
</g>
<defs>
<filter id="filter0_ii_2_169" x="7.01263" y="7.11292" width="32.9105" height="33.1604" filterUnits="userSpaceOnUse" color-interpolation-filters="sRGB">
<feFlood flood-opacity="0" result="BackgroundImageFix"/>
<feBlend mode="normal" in="SourceGraphic" in2="BackgroundImageFix" result="shape"/>
<feColorMatrix in="SourceAlpha" type="matrix" values="0 0 0 0 0 0 0 0 0 0 0 0 0 0 0 0 0 0 127 0" result="hardAlpha"/>
<feOffset dx="0.25" dy="0.5"/>
<feGaussianBlur stdDeviation="0.5"/>
<feComposite in2="hardAlpha" operator="arithmetic" k2="-1" k3="1"/>
<feColorMatrix type="matrix" values="0 0 0 0 0.258333 0 0 0 0 0.195042 0 0 0 0 0.100104 0 0 0 0.45 0"/>
<feBlend mode="normal" in2="shape" result="effect1_innerShadow_2_169"/>
<feColorMatrix in="SourceAlpha" type="matrix" values="0 0 0 0 0 0 0 0 0 0 0 0 0 0 0 0 0 0 127 0" result="hardAlpha"/>
<feOffset dx="-0.25" dy="-0.25"/>
<feGaussianBlur stdDeviation="0.5"/>
<feComposite in2="hardAlpha" operator="arithmetic" k2="-1" k3="1"/>
<feColorMatrix type="matrix" values="0 0 0 0 0.2625 0 0 0 0 0.194075 0 0 0 0 0.11375 0 0 0 0.55 0"/>
<feBlend mode="normal" in2="effect1_innerShadow_2_169" result="effect2_innerShadow_2_169"/>
</filter>
<filter id="filter1_ii_2_169" x="5.07751" y="5.07788" width="35.4361" height="35.4361" filterUnits="userSpaceOnUse" color-interpolation-filters="sRGB">
<feFlood flood-opacity="0" result="BackgroundImageFix"/>
<feBlend mode="normal" in="SourceGraphic" in2="BackgroundImageFix" result="shape"/>
<feColorMatrix in="SourceAlpha" type="matrix" values="0 0 0 0 0 0 0 0 0 0 0 0 0 0 0 0 0 0 127 0" result="hardAlpha"/>
<feOffset/>
<feGaussianBlur stdDeviation="5"/>
<feComposite in2="hardAlpha" operator="arithmetic" k2="-1" k3="1"/>
<feColorMatrix type="matrix" values="0 0 0 0 0 0 0 0 0 0 0 0 0 0 0 0 0 0 0.2 0"/>
<feBlend mode="normal" in2="shape" result="effect1_innerShadow_2_169"/>
<feColorMatrix in="SourceAlpha" type="matrix" values="0 0 0 0 0 0 0 0 0 0 0 0 0 0 0 0 0 0 127 0" result="hardAlpha"/>
<feOffset dx="-1" dy="-1"/>
<feGaussianBlur stdDeviation="0.5"/>
<feComposite in2="hardAlpha" operator="arithmetic" k2="-1" k3="1"/>
<feColorMatrix type="matrix" values="0 0 0 0 1 0 0 0 0 1 0 0 0 0 1 0 0 0 0.45 0"/>
<feBlend mode="normal" in2="effect1_innerShadow_2_169" result="effect2_innerShadow_2_169"/>
</filter>
<filter id="filter2_dd_2_169" x="11.4093" y="11.9016" width="24.2822" height="24.2822" filterUnits="userSpaceOnUse" color-interpolation-filters="sRGB">
<feFlood flood-opacity="0" result="BackgroundImageFix"/>
<feColorMatrix in="SourceAlpha" type="matrix" values="0 0 0 0 0 0 0 0 0 0 0 0 0 0 0 0 0 0 127 0" result="hardAlpha"/>
<feOffset dy="1"/>
<feGaussianBlur stdDeviation="0.5"/>
<feColorMatrix type="matrix" values="0 0 0 0 0.208333 0 0 0 0 0.172222 0 0 0 0 0.138889 0 0 0 0.2 0"/>
<feBlend mode="normal" in2="BackgroundImageFix" result="effect1_dropShadow_2_169"/>
<feColorMatrix in="SourceAlpha" type="matrix" values="0 0 0 0 0 0 0 0 0 0 0 0 0 0 0 0 0 0 127 0" result="hardAlpha"/>
<feOffset dy="0.5"/>
<feColorMatrix type="matrix" values="0 0 0 0 0.254167 0 0 0 0 0.210958 0 0 0 0 0.146146 0 0 0 0.25 0"/>
<feBlend mode="normal" in2="effect1_dropShadow_2_169" result="effect2_dropShadow_2_169"/>
<feBlend mode="normal" in="SourceGraphic" in2="effect2_dropShadow_2_169" result="shape"/>
</filter>
<filter id="filter3_d_2_169" x="9.4093" y="9.90164" width="28.2822" height="28.2822" filterUnits="userSpaceOnUse" color-interpolation-filters="sRGB">
<feFlood flood-opacity="0" result="BackgroundImageFix"/>
<feColorMatrix in="SourceAlpha" type="matrix" values="0 0 0 0 0 0 0 0 0 0 0 0 0 0 0 0 0 0 127 0" result="hardAlpha"/>
<feOffset dy="1"/>
<feGaussianBlur stdDeviation="1.5"/>
<feColorMatrix type="matrix" values="0 0 0 0 0.545833 0 0 0 0 0.322997 0 0 0 0 0.0614063 0 0 0 0.35 0"/>
<feBlend mode="normal" in2="BackgroundImageFix" result="effect1_dropShadow_2_169"/>
<feBlend mode="normal" in="SourceGraphic" in2="effect1_dropShadow_2_169" result="shape"/>
</filter>
<linearGradient id="paint0_linear_2_169" x1="17.3049" y1="-6.65547" x2="31.2819" y2="77.2065" gradientUnits="userSpaceOnUse">
<stop stop-color="white"/>
<stop offset="1" stop-color="#BFBAB1"/>
</linearGradient>
<radialGradient id="paint1_radial_2_169" cx="0" cy="0" r="1" gradientUnits="userSpaceOnUse" gradientTransform="translate(23.4679 23.5681) rotate(91.6847) scale(22.0486)">
<stop stop-color="#ECE2DA" stop-opacity="0"/>
<stop offset="1" stop-color="#635144"/>
</radialGradient>
<linearGradient id="paint2_linear_2_169" x1="96.3" y1="129.359" x2="14.3122" y2="6.07788" gradientUnits="userSpaceOnUse">
<stop stop-color="#ECE2DA"/>
<stop offset="1" stop-color="white"/>
</linearGradient>
<linearGradient id="paint3_linear_2_169" x1="50.6413" y1="122.552" x2="14.1796" y2="-18.2306" gradientUnits="userSpaceOnUse">
<stop stop-color="#ECE2DA"/>
<stop offset="1" stop-color="white"/>
</linearGradient>
<radialGradient id="paint4_radial_2_169" cx="0" cy="0" r="1" gradientUnits="userSpaceOnUse" gradientTransform="translate(23.5504 23.0427) rotate(90) scale(11.1411)">
<stop stop-color="#FFE3BA"/>
<stop offset="0.755208" stop-color="#FAC640"/>
<stop offset="1" stop-color="#ECE2DA"/>
<stop offset="1" stop-color="#ECE2DA"/>
</radialGradient>
<linearGradient id="paint5_linear_2_169" x1="29.313" y1="38.7939" x2="28.9288" y2="19.5852" gradientUnits="userSpaceOnUse">
<stop stop-color="#916800"/>
<stop offset="1" stop-color="#764E01" stop-opacity="0"/>
</linearGradient>
<radialGradient id="paint6_radial_2_169" cx="0" cy="0" r="1" gradientUnits="userSpaceOnUse" gradientTransform="translate(20.6185 18.9381) rotate(50.1944) scale(4.57972)">
<stop stop-color="white"/>
<stop offset="1" stop-color="white" stop-opacity="0"/>
</radialGradient>
<linearGradient id="paint7_linear_2_169" x1="30.8497" y1="33.0313" x2="21.8364" y2="16.1867" gradientUnits="userSpaceOnUse">
<stop stop-color="#98661B"/>
<stop offset="1" stop-color="#9E712C" stop-opacity="0"/>
</linearGradient>
</defs>
</svg>
